<svg id="a3fbad8e-8939-41b6-bd6c-6e46273db728" data-name="Calque 1" xmlns="http://www.w3.org/2000/svg" viewBox="0 0 223.16 32.9"><title>logo</title><path d="M17,64.84v-1c2.77-.59,3.43-1.68,5.18-5.6l6.58-14.66c-.17-.46-.38-1-.73-1.16a22.25,22.25,0,0,0,3.29-3.22c.25-.32.35-.39.49-.39s.25.11.56.74L42.88,61.34c1,2.06,1.75,2.34,3.92,2.55v1H34.48v-1c2.41,0,3.11-.59,3.11-1.43a7.65,7.65,0,0,0-1-2.59l-1.3-2.63H24l-1.09,2.59a9.55,9.55,0,0,0-.8,2.56c0,.91,1,1.5,3,1.5v1ZM24.46,56H34.58L29.36,45.13Z" transform="translate(-16.97 -38.86)"/><path d="M54.39,62.7c0,1.09.21,1.3,2.38,1.3v.84H48.09V64c2.17,0,2.38-.21,2.38-1.3V42.89c0-1.22-.88-1.4-1.89-1.61v-.84A39.56,39.56,0,0,0,54.39,39Z" transform="translate(-16.97 -38.86)"/><path d="M65.29,49.3h3.47v1.22H65.29V62.7c0,1.09.21,1.3,3.29,1.3v.84h-10V64c2.55,0,2.76-.21,2.76-1.3V50.52h-2.8V49.3h2.8C61.37,44.4,63,39,69,39c1.85,0,3.74.94,3.74,2.69,0,1-.83,1.51-1.82,1.51s-1.54-.74-2-1.43-.77-1.48-1.54-1.48c-1.57,0-2.1,2.38-2.1,3.58Z" transform="translate(-16.97 -38.86)"/><path d="M76.91,62.7c0,1.09.21,1.3,2.59,1.3v.84H70.44V64c2.34,0,2.55-.21,2.55-1.3V53c0-1.08-1-1.33-2.48-1.54v-.84a33.29,33.29,0,0,0,6.4-1.85v4.55H77c1.33-1.93,3-4.55,5.6-4.55a2.63,2.63,0,0,1,2.77,2.48,2,2,0,0,1-2.07,2.17,3.76,3.76,0,0,1-1.92-.59,3,3,0,0,0-1.72-.6c-1.22,0-2.73,2.35-2.73,3.33Z" transform="translate(-16.97 -38.86)"/><path d="M99.8,59.76c-1.4,3.43-3.78,5.57-7.67,5.57-5,0-7.73-3.15-7.73-8a8.18,8.18,0,0,1,8.22-8.54,6.9,6.9,0,0,1,7.11,6.75H88.32c-.18,3.36,1.92,6.62,5.56,6.62a6.37,6.37,0,0,0,5.43-2.94Zm-4.87-5.42c.67,0,.88-.11.88-.84a3.69,3.69,0,0,0-3.5-3.85c-2.94,0-3.78,2.55-3.92,4.69Z" transform="translate(-16.97 -38.86)"/><path d="M112.69,63a7.37,7.37,0,0,1-5.84,2.31c-4.13,0-5.95-4.13-5.95-8.23,0-4.37,2.59-8.29,7.21-8.29a8,8,0,0,1,4.44,1.61V42.89c0-1.22-.87-1.4-2.34-1.61v-.84a34.24,34.24,0,0,0,6.26-1.4V62c0,1.54.6,1.75,1.89,1.75v.84l-5.67.7Zm-.14-9.56c-.56-2.1-1.71-3.81-3.85-3.81-3.18,0-3.88,3.67-3.88,6.19,0,3,1.4,7,5,7a3.85,3.85,0,0,0,2.73-.91Z" transform="translate(-16.97 -38.86)"/><path d="M135.59,43.63c0-3-.32-3.3-3.57-3.33v-.95h11.41c7.63,0,11.76,2.53,11.76,7.43,0,2.94-1.89,5.7-8.61,5.7h-5.92v8.09c0,3,.32,3.29,4,3.32v1H132v-1c3.25,0,3.57-.31,3.57-3.32Zm5.07,7.91H144c4,0,6.09-2.35,6.09-5.81,0-4-2.94-5.43-6.61-5.43-2.59,0-2.84.17-2.84,2.59Z" transform="translate(-16.97 -38.86)"/><path d="M155.15,50.59a39.37,39.37,0,0,0,6.12-1.78V62.7c0,1.09.21,1.3,2,1.3v.84h-8V64c1.89,0,2.1-.21,2.1-1.3V52.38c0-.42-.38-.84-2.2-1Zm1.68-9.1a2.42,2.42,0,1,1,2.41,2.45A2.47,2.47,0,0,1,156.83,41.49Z" transform="translate(-16.97 -38.86)"/><path d="M171,56.93l6.61-5.43c.42-.31.53-.52.53-.73s-.56-.6-1.3-.74V49.3h6.65v.84c-2.73.24-3.36.73-5.32,2.27l-2.69,2.1,7.49,9c.35.42.73.56,1.75.53v.84H176v-.77c.8-.07,1.75-.21,1.75-.53,0-.14-.11-.24-.25-.42l-4.93-6.23L171,58.15V62.7c0,1.09.21,1.3,2,1.3v.84h-7.6V64c1.51,0,1.72-.21,1.72-1.3V42.05c0-.7-1-1-1.58-1.09v-.83A46.49,46.49,0,0,0,171,39Z" transform="translate(-16.97 -38.86)"/><path d="M198.87,59.76c-1.4,3.43-3.78,5.57-7.66,5.57-5,0-7.74-3.15-7.74-8a8.18,8.18,0,0,1,8.23-8.54,6.9,6.9,0,0,1,7.1,6.75H187.39c-.17,3.36,1.93,6.62,5.57,6.62a6.35,6.35,0,0,0,5.42-2.94ZM194,54.34c.66,0,.87-.11.87-.84a3.69,3.69,0,0,0-3.5-3.85c-2.94,0-3.78,2.55-3.92,4.69Z" transform="translate(-16.97 -38.86)"/><path d="M209.12,50.52h-3.44V61.37c0,.84.17,2.07,2.06,2.07a4.76,4.76,0,0,0,2.94-1.61v1.26a7,7,0,0,1-4.79,2.24c-2.49,0-4.13-1.37-4.13-3.26V50.52h-1.93v-.84l5.85-6.3V49.3h4.11Z" transform="translate(-16.97 -38.86)"/><path d="M219.78,50.52h-3.45V61.37c0,.84.18,2.07,2.07,2.07a4.81,4.81,0,0,0,2.94-1.61v1.26a7,7,0,0,1-4.8,2.24c-2.48,0-4.13-1.37-4.13-3.26V50.52h-1.92v-.84l5.84-6.3V49.3h4.11Z" transform="translate(-16.97 -38.86)"/><path d="M221.65,49.3h8.86v.84c-.88,0-2.45.24-2.45.91a3,3,0,0,0,.24.84l4.41,9,3.82-8.54a1.93,1.93,0,0,0,.21-.91c0-.77-.42-1.19-2.1-1.29V49.3h5.49v.84a3,3,0,0,0-2.55,2.2l-7.11,16c-.66,1.51-1.36,3.4-3.29,3.4a2.09,2.09,0,0,1-2.31-2,1.85,1.85,0,0,1,1.86-1.82,4.7,4.7,0,0,1,1.26.24,3.76,3.76,0,0,0,.94.25c.88,0,1.72-2.35,1.72-3l-6.48-13.55c-.59-1.29-1.22-1.47-2.52-1.71Z" transform="translate(-16.97 -38.86)"/></svg>